<?xml version="1.0" encoding="UTF-8"?>
<svg width="728px" height="1019px" viewBox="0 0 728 1019" version="1.1" xmlns="http://www.w3.org/2000/svg" xmlns:xlink="http://www.w3.org/1999/xlink">
    <!-- Generator: Sketch 42 (36781) - http://www.bohemiancoding.com/sketch -->
    <title>dia_bubble_2</title>
    <desc>Created with Sketch.</desc>
    <defs>
        <polygon id="path-1" points="662 954 662 50 630 18 0 18 0 922 32 954 500 954 500 970 646 970"></polygon>
        <filter x="-50%" y="-50%" width="200%" height="200%" filterUnits="objectBoundingBox" id="filter-2">
            <feMorphology radius="2" operator="dilate" in="SourceAlpha" result="shadowSpreadOuter1"></feMorphology>
            <feOffset dx="0" dy="0" in="shadowSpreadOuter1" result="shadowOffsetOuter1"></feOffset>
            <feGaussianBlur stdDeviation="16" in="shadowOffsetOuter1" result="shadowBlurOuter1"></feGaussianBlur>
            <feComposite in="shadowBlurOuter1" in2="SourceAlpha" operator="out" result="shadowBlurOuter1"></feComposite>
            <feColorMatrix values="0 0 0 0 0.31372549   0 0 0 0 0.560784314   0 0 0 0 0.847058824  0 0 0 1 0" type="matrix" in="shadowBlurOuter1"></feColorMatrix>
        </filter>
        <path d="M482,964 L490,964 L490,972 L482,972 L482,964 Z M466,964 L474,964 L474,972 L466,972 L466,964 Z M450,964 L458,964 L458,972 L450,972 L450,964 Z M434,964 L442,964 L442,972 L434,972 L434,964 Z M418,964 L426,964 L426,972 L418,972 L418,964 Z M402,964 L410,964 L410,972 L402,972 L402,964 Z M386,964 L394,964 L394,972 L386,972 L386,964 Z M370,964 L378,964 L378,972 L370,972 L370,964 Z M354,964 L362,964 L362,972 L354,972 L354,964 Z M338,964 L346,964 L346,972 L338,972 L338,964 Z M322,964 L330,964 L330,972 L322,972 L322,964 Z M306,964 L314,964 L314,972 L306,972 L306,964 Z M290,964 L298,964 L298,972 L290,972 L290,964 Z M274,964 L282,964 L282,972 L274,972 L274,964 Z M258,964 L266,964 L266,972 L258,972 L258,964 Z M242,964 L250,964 L250,972 L242,972 L242,964 Z" id="path-3"></path>
        <filter x="-50%" y="-50%" width="200%" height="200%" filterUnits="objectBoundingBox" id="filter-4">
            <feOffset dx="0" dy="0" in="SourceAlpha" result="shadowOffsetOuter1"></feOffset>
            <feGaussianBlur stdDeviation="8" in="shadowOffsetOuter1" result="shadowBlurOuter1"></feGaussianBlur>
            <feColorMatrix values="0 0 0 0 0.317647059   0 0 0 0 0.560784314   0 0 0 0 0.847058824  0 0 0 1 0" type="matrix" in="shadowBlurOuter1"></feColorMatrix>
        </filter>
        <path d="M606,0 L630,0 L630,8 L606,8 L606,0 Z M574,0 L598,0 L598,8 L574,8 L574,0 Z M542,0 L566,0 L566,8 L542,8 L542,0 Z M510,0 L534,0 L534,8 L510,8 L510,0 Z M478,0 L502,0 L502,8 L478,8 L478,0 Z M446,0 L470,0 L470,8 L446,8 L446,0 Z M430,0 L438,0 L438,8 L430,8 L430,0 Z M414,0 L422,0 L422,8 L414,8 L414,0 Z" id="path-5"></path>
        <filter x="-50%" y="-50%" width="200%" height="200%" filterUnits="objectBoundingBox" id="filter-6">
            <feOffset dx="0" dy="0" in="SourceAlpha" result="shadowOffsetOuter1"></feOffset>
            <feGaussianBlur stdDeviation="8" in="shadowOffsetOuter1" result="shadowBlurOuter1"></feGaussianBlur>
            <feColorMatrix values="0 0 0 0 0.317647059   0 0 0 0 0.560784314   0 0 0 0 0.847058824  0 0 0 1 0" type="matrix" in="shadowBlurOuter1"></feColorMatrix>
        </filter>
    </defs>
    <g id="Slices" stroke="none" stroke-width="1" fill="none" fill-rule="evenodd">
        <g id="dia_bubble_2" transform="translate(33.000000, 16.000000)">
            <g id="Combined-Shape" opacity="0.88">
                <use fill="black" fill-opacity="1" filter="url(#filter-2)" xlink:href="#path-1"></use>
                <use stroke="#508FD8" stroke-width="4" fill="#041030" fill-rule="evenodd" xlink:href="#path-1"></use>
            </g>
            <polygon id="Rectangle-6" fill="#9DC0ED" points="518 952 645 952 641 956 518 956"></polygon>
            <g id="Combined-Shape">
                <use fill="black" fill-opacity="1" filter="url(#filter-4)" xlink:href="#path-3"></use>
                <use fill="#9CBFED" fill-rule="evenodd" xlink:href="#path-3"></use>
            </g>
            <g id="Combined-Shape-Copy">
                <use fill="black" fill-opacity="1" filter="url(#filter-6)" xlink:href="#path-5"></use>
                <use fill="#9CBFED" fill-rule="evenodd" xlink:href="#path-5"></use>
            </g>
        </g>
    </g>
</svg>