<?xml version="1.0" encoding="UTF-8"?>
<svg width="48px" height="48px" viewBox="0 0 48 48" version="1.1" xmlns="http://www.w3.org/2000/svg" xmlns:xlink="http://www.w3.org/1999/xlink">
    <!-- Generator: Sketch 42 (36781) - http://www.bohemiancoding.com/sketch -->
    <title>ic_phone_fill</title>
    <desc>Created with Sketch.</desc>
    <defs></defs>
    <g id="Slices" stroke="none" stroke-width="1" fill="none" fill-rule="evenodd">
        <g id="ic_phone_fill">
            <polygon id="Shape" points="0 0 48 0 48 48 0 48"></polygon>
            <path d="M31,2 L15,2 C12.24,2 10,4.24 10,7 L10,41 C10,43.76 12.24,46 15,46 L31,46 C33.76,46 36,43.76 36,41 L36,7 C36,4.24 33.76,2 31,2 Z M23,44 C21.34,44 20,42.66 20,41 C20,39.34 21.34,38 23,38 C24.66,38 26,39.34 26,41 C26,42.66 24.66,44 23,44 Z M32,36 L14,36 L14,8 L32,8 L32,36 Z" id="Shape" fill="#CDE4FF" fill-rule="nonzero"></path>
        </g>
    </g>
</svg>