<?xml version="1.0" encoding="UTF-8"?>
<svg width="48px" height="48px" viewBox="0 0 48 48" version="1.1" xmlns="http://www.w3.org/2000/svg" xmlns:xlink="http://www.w3.org/1999/xlink">
    <!-- Generator: Sketch 42 (36781) - http://www.bohemiancoding.com/sketch -->
    <title>ic_phone_ioutline</title>
    <desc>Created with Sketch.</desc>
    <defs>
        <polygon id="path-1" points="32 36 14 36 14 8 32 8"></polygon>
        <mask id="mask-2" maskContentUnits="userSpaceOnUse" maskUnits="objectBoundingBox" x="-1" y="-1" width="20" height="30">
            <rect x="13" y="7" width="20" height="30" fill="white"></rect>
            <use xlink:href="#path-1" fill="black"></use>
        </mask>
        <path d="M23,44 C21.34,44 20,42.66 20,41 C20,39.34 21.34,38 23,38 C24.66,38 26,39.34 26,41 C26,42.66 24.66,44 23,44 Z" id="path-3"></path>
        <mask id="mask-4" maskContentUnits="userSpaceOnUse" maskUnits="objectBoundingBox" x="0" y="0" width="6" height="6" fill="white">
            <use xlink:href="#path-3"></use>
        </mask>
        <path d="M31,2 L15,2 C12.24,2 10,4.24 10,7 L10,41 C10,43.76 12.24,46 15,46 L31,46 C33.76,46 36,43.76 36,41 L36,7 C36,4.24 33.76,2 31,2 Z" id="path-5"></path>
        <mask id="mask-6" maskContentUnits="userSpaceOnUse" maskUnits="objectBoundingBox" x="0" y="0" width="26" height="44" fill="white">
            <use xlink:href="#path-5"></use>
        </mask>
    </defs>
    <g id="Slices" stroke="none" stroke-width="1" fill="none" fill-rule="evenodd">
        <g id="ic_phone_ioutline">
            <polygon id="Shape" points="0 0 48 0 48 48 0 48"></polygon>
            <use id="Path" stroke="#687A8E" mask="url(#mask-2)" stroke-width="2" xlink:href="#path-1"></use>
            <use id="Path" stroke="#687A8E" mask="url(#mask-4)" stroke-width="2" xlink:href="#path-3"></use>
            <use id="Path" stroke="#687A8E" mask="url(#mask-6)" stroke-width="2" xlink:href="#path-5"></use>
        </g>
    </g>
</svg>